<?xml version="1.0" encoding="utf-8"?>
<!-- Generator: Adobe Illustrator 16.0.0, SVG Export Plug-In . SVG Version: 6.00 Build 0)  -->
<!DOCTYPE svg PUBLIC "-//W3C//DTD SVG 1.1//EN" "http://www.w3.org/Graphics/SVG/1.1/DTD/svg11.dtd">
<svg version="1.1" xmlns="http://www.w3.org/2000/svg" xmlns:xlink="http://www.w3.org/1999/xlink" x="0px" y="0px"
	 width="141.487px" height="141.473px" viewBox="0 0 141.487 141.473" enable-background="new 0 0 141.487 141.473"
	 xml:space="preserve">
<g id="Layer_1" display="none">
	<g display="inline">
		<defs>
			<rect id="SVGID_1_" x="-64.513" y="96.965" width="44.513" height="44.508"/>
		</defs>
		<clipPath id="SVGID_2_">
			<use xlink:href="#SVGID_1_"  overflow="visible"/>
		</clipPath>
		<g clip-path="url(#SVGID_2_)">
			<defs>
				<rect id="SVGID_3_" x="-64.513" y="96.965" width="44.513" height="44.508"/>
			</defs>
			<clipPath id="SVGID_4_">
				<use xlink:href="#SVGID_3_"  overflow="visible"/>
			</clipPath>
			<path clip-path="url(#SVGID_4_)" fill="#FFFFFF" d="M-32.369,141.625h-19.462c-6.914,0-12.519-5.605-12.519-12.52v-19.462
				c0-6.914,5.605-12.519,12.519-12.519h19.462c6.913,0,12.519,5.605,12.519,12.519v19.462
				C-19.851,136.02-25.456,141.625-32.369,141.625"/>
			<path clip-path="url(#SVGID_4_)" fill="none" stroke="#EDEDED" stroke-width="0.5" stroke-miterlimit="10" d="M-32.369,141.625
				h-19.462c-6.914,0-12.519-5.605-12.519-12.52v-19.462c0-6.914,5.605-12.519,12.519-12.519h19.462
				c6.913,0,12.519,5.605,12.519,12.519v19.462C-19.851,136.02-25.456,141.625-32.369,141.625z"/>
			<g opacity="0.2" clip-path="url(#SVGID_4_)">
				<g>
					<defs>
						<rect id="SVGID_5_" x="-57.669" y="103.302" width="31.332" height="31.329"/>
					</defs>
					<clipPath id="SVGID_6_">
						<use xlink:href="#SVGID_5_"  overflow="visible"/>
					</clipPath>
					<path clip-path="url(#SVGID_6_)" fill="#3C3C3B" d="M-41.448,106.008c-2.602-2.602-6.375-3.32-9.683-2.189l5.353,5.353
						l-0.206,5.815l-5.815,0.206l-5.353-5.353c-1.131,3.307-0.413,7.081,2.189,9.684c2.898,2.896,7.249,3.461,10.79,1.73
						l12.369,12.369c1.295,1.296,3.344,1.348,4.576,0.117c1.23-1.232,1.179-3.281-0.117-4.577l-12.37-12.37
						C-37.986,113.253-38.552,108.905-41.448,106.008 M-29.086,131.885c-0.555,0.556-1.47,0.54-2.043-0.034
						c-0.574-0.572-0.589-1.487-0.034-2.043c0.556-0.555,1.471-0.54,2.043,0.034C-28.546,130.416-28.531,131.331-29.086,131.885"/>
					
						<rect x="-53.507" y="109.159" transform="matrix(0.7071 -0.7071 0.7071 0.7071 -93.1616 -5.1336)" clip-path="url(#SVGID_6_)" fill="#3C3C3B" width="1.46" height="1.459"/>
					
						<rect x="-51.812" y="107.464" transform="matrix(0.7073 -0.7069 0.7069 0.7073 -91.4391 -4.4407)" clip-path="url(#SVGID_6_)" fill="#3C3C3B" width="1.459" height="1.459"/>
					
						<rect x="-51.606" y="111.061" transform="matrix(0.7073 -0.7069 0.7069 0.7073 -93.9219 -3.2424)" clip-path="url(#SVGID_6_)" fill="#3C3C3B" width="1.459" height="1.459"/>
					
						<rect x="-49.91" y="109.365" transform="matrix(0.7073 -0.7069 0.7069 0.7073 -92.2267 -2.54)" clip-path="url(#SVGID_6_)" fill="#3C3C3B" width="1.459" height="1.459"/>
				</g>
			</g>
			<path clip-path="url(#SVGID_4_)" fill="#00A19A" d="M-41.953,106.514c-2.603-2.602-6.376-3.32-9.684-2.189l5.353,5.353
				l-0.206,5.815l-5.815,0.206l-5.353-5.353c-1.131,3.307-0.413,7.081,2.189,9.683c2.898,2.897,7.249,3.461,10.79,1.731
				l12.369,12.369c1.295,1.296,3.344,1.348,4.576,0.117c1.23-1.232,1.179-3.281-0.117-4.577l-12.37-12.37
				C-38.492,113.759-39.058,109.411-41.953,106.514 M-29.592,132.391c-0.555,0.555-1.47,0.54-2.043-0.034
				c-0.574-0.573-0.589-1.487-0.034-2.043c0.556-0.555,1.471-0.54,2.043,0.034C-29.052,130.921-29.036,131.836-29.592,132.391"/>
			
				<rect x="-54.013" y="109.665" transform="matrix(0.7073 -0.7069 0.7069 0.7073 -93.6401 -5.3527)" clip-path="url(#SVGID_4_)" fill="#95C11F" width="1.459" height="1.459"/>
			
				<rect x="-52.317" y="107.97" transform="matrix(0.7073 -0.7069 0.7069 0.7073 -91.9448 -4.6503)" clip-path="url(#SVGID_4_)" fill="#95C11F" width="1.459" height="1.459"/>
			
				<rect x="-52.112" y="111.567" transform="matrix(0.7073 -0.7069 0.7069 0.7073 -94.4276 -3.452)" clip-path="url(#SVGID_4_)" fill="#95C11F" width="1.459" height="1.459"/>
			
				<rect x="-50.416" y="109.871" transform="matrix(0.7073 -0.7069 0.7069 0.7073 -92.7324 -2.7495)" clip-path="url(#SVGID_4_)" fill="#95C11F" width="1.459" height="1.459"/>
		</g>
	</g>
	<g display="inline">
		<defs>
			<polygon id="SVGID_7_" points="210.804,22.824 58.14,-129.843 -94.518,22.81 58.153,175.477 			"/>
		</defs>
		<clipPath id="SVGID_8_">
			<use xlink:href="#SVGID_7_"  overflow="visible"/>
		</clipPath>
		<g clip-path="url(#SVGID_8_)">
			<path fill="#00A19A" d="M13.532,65.351c0,17.852,10.479,33.256,25.701,40.722l0.006-36.718l20.643-19.239l20.654,19.239v36.715
				c15.218-7.462,25.703-22.867,25.703-40.714c0-19.875-12.993-36.733-31.073-42.946v-84.846
				c0.005-8.886-6.845-16.091-15.291-16.097c-8.445,0.006-15.298,7.211-15.298,16.099v84.853
				C26.512,28.632,13.532,45.485,13.532,65.351 M59.885-65.798c3.805,0,6.893,3.191,6.888,7.124
				c0.005,3.937-3.079,7.121-6.888,7.124c-3.808-0.003-6.894-3.189-6.89-7.124C52.995-62.606,56.077-65.8,59.885-65.798"/>
			<polygon fill="#95C11F" points="62.16,87.359 69.241,87.366 69.241,94.441 62.164,94.443 			"/>
			<rect x="50.527" y="87.361" fill="#95C11F" width="7.08" height="7.082"/>
			<polygon fill="#95C11F" points="62.164,74.319 69.236,74.319 69.241,81.398 62.16,81.398 			"/>
			<rect x="50.525" y="74.319" fill="#95C11F" width="7.08" height="7.079"/>
		</g>
	</g>
</g>
<g id="Layer_2" display="none">
	<polygon display="inline" fill="#00A19A" points="31.9,123.668 31.912,58.703 74.738,18.789 90.203,33.412 90.405,10.551 
		107.837,10.41 107.874,50.021 117.589,58.703 117.589,123.668 	"/>
	<g display="inline">
		<polygon fill="#95C11F" points="79.466,96.057 94.156,96.071 94.156,110.749 79.474,110.753 		"/>
		<rect x="55.331" y="96.062" fill="#95C11F" width="14.689" height="14.692"/>
		<polygon fill="#95C11F" points="79.474,69.004 94.146,69.004 94.156,83.691 79.466,83.691 		"/>
		<polygon fill="#95C11F" points="55.331,69.004 70.021,69.004 70.012,83.691 55.331,83.696 		"/>
	</g>
</g>
<g id="Layer_3">
	<polyline fill="none" stroke="#00A19A" stroke-width="9" stroke-miterlimit="10" points="15.609,70.875 31.167,56.905 
		74.06,18.385 124.279,64.35 	"/>
	
		<line fill="#00A19A" stroke="#00A19A" stroke-width="6" stroke-miterlimit="10" x1="31.455" y1="126.002" x2="31.784" y2="54.987"/>
	<polyline fill="#00A19A" stroke="#00A19A" stroke-miterlimit="10" points="86.543,27.181 85.409,11.007 109.81,12.426 
		108.676,49.596 	"/>
</g>
<g id="Layer_4">
	<g>
		<polygon fill="#00A19A" stroke="#00A19A" stroke-miterlimit="10" points="79.466,96.057 94.156,96.071 94.156,110.749 
			79.474,110.753 		"/>
		<rect x="55.331" y="96.062" fill="#00A19A" stroke="#00A19A" stroke-miterlimit="10" width="14.689" height="14.692"/>
		<polygon fill="#00A19A" stroke="#00A19A" stroke-miterlimit="10" points="79.474,69.004 94.146,69.004 94.156,83.691 
			79.466,83.691 		"/>
		<polygon fill="#00A19A" stroke="#00A19A" stroke-miterlimit="10" points="55.331,69.004 70.021,69.004 70.012,83.691 
			55.331,83.696 		"/>
	</g>
</g>
</svg>
