<?xml version="1.0" encoding="utf-8"?>
<!-- Generator: Adobe Illustrator 16.0.0, SVG Export Plug-In . SVG Version: 6.00 Build 0)  -->
<!DOCTYPE svg PUBLIC "-//W3C//DTD SVG 1.1//EN" "http://www.w3.org/Graphics/SVG/1.1/DTD/svg11.dtd">
<svg version="1.1" xmlns="http://www.w3.org/2000/svg" xmlns:xlink="http://www.w3.org/1999/xlink" x="0px" y="0px" width="100px"
	 height="100px" viewBox="0 0 100 100" enable-background="new 0 0 100 100" xml:space="preserve">
<g id="Layer_1" display="none">
	<g display="inline">
		<defs>
			<rect id="SVGID_1_" x="-2.602" y="-2.598" width="105.203" height="105.195"/>
		</defs>
		<clipPath id="SVGID_2_">
			<use xlink:href="#SVGID_1_"  overflow="visible"/>
		</clipPath>
		<g clip-path="url(#SVGID_2_)">
			<defs>
				<rect id="SVGID_3_" x="-2.602" y="-2.598" width="105.203" height="105.195"/>
			</defs>
			<clipPath id="SVGID_4_">
				<use xlink:href="#SVGID_3_"  overflow="visible"/>
			</clipPath>
			<path clip-path="url(#SVGID_4_)" fill="#FFFFFF" d="M73.368,102.957H27.369c-16.342,0-29.588-13.249-29.588-29.589V27.369
				c0-16.342,13.246-29.588,29.588-29.588h45.999c16.34,0,29.589,13.246,29.589,29.588v45.999
				C102.957,89.708,89.708,102.957,73.368,102.957"/>
			<path clip-path="url(#SVGID_4_)" fill="none" stroke="#EDEDED" stroke-width="0.5" stroke-miterlimit="10" d="M73.368,102.957
				H27.369c-16.342,0-29.588-13.249-29.588-29.589V27.369c0-16.342,13.246-29.588,29.588-29.588h45.999
				c16.34,0,29.589,13.246,29.589,29.588v45.999C102.957,89.708,89.708,102.957,73.368,102.957z"/>
			<g opacity="0.2" clip-path="url(#SVGID_4_)">
				<g>
					<defs>
						<rect id="SVGID_5_" x="13.571" y="12.38" width="74.051" height="74.044"/>
					</defs>
					<clipPath id="SVGID_6_">
						<use xlink:href="#SVGID_5_"  overflow="visible"/>
					</clipPath>
					<path clip-path="url(#SVGID_6_)" fill="#3C3C3B" d="M51.911,18.775c-6.148-6.148-15.069-7.845-22.888-5.172l12.653,12.65
						l-0.487,13.744l-13.744,0.487l-12.65-12.653c-2.674,7.818-0.977,16.736,5.172,22.888c6.851,6.847,17.136,8.181,25.504,4.091
						l29.235,29.234c3.061,3.063,7.903,3.185,10.815,0.276c2.908-2.912,2.784-7.755-0.276-10.817l-29.24-29.237
						C60.091,35.9,58.757,25.624,51.911,18.775 M81.128,79.937c-1.312,1.312-3.473,1.276-4.829-0.081
						c-1.356-1.353-1.39-3.516-0.078-4.829c1.311-1.311,3.476-1.276,4.828,0.081C82.406,76.463,82.438,78.625,81.128,79.937"/>
					
						<rect x="23.408" y="26.224" transform="matrix(0.707 -0.7072 0.7072 0.707 -12.4016 25.9649)" clip-path="url(#SVGID_6_)" fill="#3C3C3B" width="3.451" height="3.449"/>
					<polygon clip-path="url(#SVGID_6_)" fill="#3C3C3B" points="31.581,23.941 29.139,26.379 26.702,23.941 29.139,21.502 					"/>
					
						<rect x="27.901" y="30.716" transform="matrix(0.707 -0.7072 0.7072 0.707 -14.2627 30.4594)" clip-path="url(#SVGID_6_)" fill="#3C3C3B" width="3.451" height="3.451"/>
					
						<rect x="31.911" y="26.711" transform="matrix(0.7071 -0.7071 0.7071 0.7071 -10.2556 32.1119)" clip-path="url(#SVGID_6_)" fill="#3C3C3B" width="3.447" height="3.449"/>
				</g>
			</g>
			<path clip-path="url(#SVGID_4_)" fill="#00A19A" d="M50.716,19.972c-6.149-6.149-15.07-7.845-22.888-5.173L40.481,27.45
				l-0.487,13.744L26.25,41.682L13.599,29.028c-2.673,7.817-0.977,16.736,5.173,22.885c6.85,6.848,17.135,8.18,25.505,4.092
				L73.51,85.24c3.062,3.062,7.904,3.186,10.816,0.277c2.908-2.913,2.784-7.756-0.277-10.818L54.811,45.462
				C58.896,37.096,57.561,26.819,50.716,19.972 M79.932,81.132c-1.311,1.312-3.471,1.276-4.829-0.08
				c-1.356-1.355-1.389-3.516-0.078-4.829c1.312-1.312,3.476-1.276,4.829,0.08C81.21,77.657,81.247,79.821,79.932,81.132"/>
			
				<rect x="22.213" y="27.419" transform="matrix(0.707 -0.7072 0.7072 0.707 -13.5969 25.4705)" clip-path="url(#SVGID_4_)" fill="#95C11F" width="3.451" height="3.449"/>
			
				<rect x="26.221" y="23.414" transform="matrix(0.7078 -0.7064 0.7064 0.7078 -9.5919 27.0858)" clip-path="url(#SVGID_4_)" fill="#95C11F" width="3.451" height="3.447"/>
			
				<rect x="26.706" y="31.913" transform="matrix(0.7071 -0.7071 0.7071 0.7071 -15.4583 29.9558)" clip-path="url(#SVGID_4_)" fill="#95C11F" width="3.45" height="3.45"/>
			
				<rect x="30.715" y="27.907" transform="matrix(0.7071 -0.7071 0.7071 0.7071 -11.4512 31.6161)" clip-path="url(#SVGID_4_)" fill="#95C11F" width="3.447" height="3.449"/>
		</g>
	</g>
</g>
<g id="Layer_3">
	<g>
		<defs>
			<rect id="SVGID_7_" x="8.657" y="7.305" width="84.04" height="84.032"/>
		</defs>
		<clipPath id="SVGID_8_">
			<use xlink:href="#SVGID_7_"  overflow="visible"/>
		</clipPath>
		<path clip-path="url(#SVGID_8_)" fill="#3C3C3B" d="M52.169,14.563c-6.978-6.978-17.102-8.903-25.975-5.87l14.36,14.357
			l-0.554,15.598l-15.598,0.554l-14.357-14.36c-3.034,8.873-1.108,18.994,5.87,25.975c7.774,7.771,19.447,9.284,28.944,4.643
			l33.179,33.179c3.474,3.477,8.97,3.614,12.274,0.313c3.301-3.305,3.159-8.801-0.313-12.276L56.815,43.493
			C61.452,33.998,59.938,22.336,52.169,14.563 M85.327,83.975c-1.488,1.489-3.941,1.448-5.48-0.092
			c-1.539-1.535-1.577-3.99-0.089-5.48c1.487-1.487,3.944-1.448,5.479,0.092C86.778,80.032,86.813,82.486,85.327,83.975"/>
		
			<rect x="19.82" y="23.016" transform="matrix(0.707 -0.7072 0.7072 0.707 -11.2807 22.72)" clip-path="url(#SVGID_8_)" fill="#3C3C3B" width="3.916" height="3.915"/>
		<polygon clip-path="url(#SVGID_8_)" fill="#3C3C3B" points="29.097,20.426 26.325,23.192 23.56,20.426 26.325,17.658 		"/>
		
			<rect x="24.92" y="28.115" transform="matrix(0.707 -0.7072 0.7072 0.707 -13.393 27.8209)" clip-path="url(#SVGID_8_)" fill="#3C3C3B" width="3.916" height="3.916"/>
		
			<rect x="29.471" y="23.569" transform="matrix(0.7071 -0.7071 0.7071 0.7071 -8.8449 29.6993)" clip-path="url(#SVGID_8_)" fill="#3C3C3B" width="3.913" height="3.914"/>
	</g>
	<path fill="#00A19A" d="M50.812,15.921c-6.979-6.979-17.104-8.902-25.975-5.87l14.359,14.357l-0.553,15.599L23.047,40.56
		L8.688,26.199C5.655,35.071,7.58,45.193,14.56,52.171c7.773,7.771,19.445,9.283,28.945,4.644l33.177,33.18
		c3.475,3.476,8.97,3.615,12.275,0.314c3.3-3.306,3.159-8.802-0.315-12.277L55.46,44.85C60.096,35.354,58.581,23.692,50.812,15.921
		 M83.97,85.331c-1.487,1.488-3.939,1.449-5.48-0.091c-1.54-1.538-1.576-3.989-0.089-5.48c1.488-1.488,3.944-1.448,5.48,0.091
		C85.42,81.388,85.462,83.844,83.97,85.331"/>
	
		<rect x="18.465" y="24.373" transform="matrix(0.707 -0.7072 0.7072 0.707 -12.6372 22.1589)" fill="#95C11F" width="3.916" height="3.915"/>
	
		<rect x="23.014" y="19.828" transform="matrix(0.7079 -0.7064 0.7064 0.7079 -8.0922 24.0028)" fill="#95C11F" width="3.915" height="3.912"/>
	
		<rect x="23.564" y="29.473" transform="matrix(0.7071 -0.7071 0.7071 0.7071 -14.7498 27.2522)" fill="#95C11F" width="3.915" height="3.915"/>
	
		<rect x="28.114" y="24.926" transform="matrix(0.707 -0.7072 0.7072 0.707 -10.2014 29.1435)" fill="#95C11F" width="3.912" height="3.914"/>
</g>
</svg>
