<?xml version="1.0" encoding="utf-8"?>
<!-- Generator: Adobe Illustrator 16.0.0, SVG Export Plug-In . SVG Version: 6.00 Build 0)  -->
<!DOCTYPE svg PUBLIC "-//W3C//DTD SVG 1.1//EN" "http://www.w3.org/Graphics/SVG/1.1/DTD/svg11.dtd">
<svg version="1.1" xmlns="http://www.w3.org/2000/svg" xmlns:xlink="http://www.w3.org/1999/xlink" x="0px" y="0px" width="200px"
	 height="200px" viewBox="0 0 200 200" enable-background="new 0 0 200 200" xml:space="preserve">
<g id="Layer_1" display="none">
	<g display="inline">
		<defs>
			<rect id="SVGID_1_" x="-35.256" y="126.228" width="44.513" height="44.508"/>
		</defs>
		<clipPath id="SVGID_2_">
			<use xlink:href="#SVGID_1_"  overflow="visible"/>
		</clipPath>
		<g clip-path="url(#SVGID_2_)">
			<defs>
				<rect id="SVGID_3_" x="-35.256" y="126.229" width="44.513" height="44.508"/>
			</defs>
			<clipPath id="SVGID_4_">
				<use xlink:href="#SVGID_3_"  overflow="visible"/>
			</clipPath>
			<path clip-path="url(#SVGID_4_)" fill="#FFFFFF" d="M-3.112,170.889h-19.462c-6.914,0-12.519-5.605-12.519-12.52v-19.462
				c0-6.914,5.605-12.519,12.519-12.519h19.462c6.913,0,12.519,5.605,12.519,12.519v19.462
				C9.406,165.283,3.801,170.889-3.112,170.889"/>
			<path clip-path="url(#SVGID_4_)" fill="none" stroke="#EDEDED" stroke-width="0.5" stroke-miterlimit="10" d="M-3.112,170.889
				h-19.462c-6.914,0-12.519-5.605-12.519-12.52v-19.462c0-6.914,5.605-12.519,12.519-12.519h19.462
				c6.913,0,12.519,5.605,12.519,12.519v19.462C9.406,165.283,3.801,170.889-3.112,170.889z"/>
			<g opacity="0.2" clip-path="url(#SVGID_4_)">
				<g>
					<defs>
						<rect id="SVGID_5_" x="-28.413" y="132.565" width="31.332" height="31.329"/>
					</defs>
					<clipPath id="SVGID_6_">
						<use xlink:href="#SVGID_5_"  overflow="visible"/>
					</clipPath>
					<path clip-path="url(#SVGID_6_)" fill="#3C3C3B" d="M-12.191,135.271c-2.602-2.602-6.375-3.32-9.683-2.189l5.353,5.353
						l-0.206,5.815l-5.815,0.206l-5.353-5.353c-1.131,3.307-0.413,7.081,2.189,9.684c2.898,2.896,7.249,3.461,10.79,1.73
						l12.369,12.369c1.295,1.296,3.344,1.348,4.576,0.117c1.23-1.232,1.179-3.281-0.117-4.577l-12.37-12.37
						C-8.729,142.517-9.295,138.168-12.191,135.271 M0.171,161.148c-0.555,0.556-1.47,0.54-2.043-0.034
						c-0.574-0.572-0.589-1.487-0.034-2.043c0.556-0.555,1.471-0.54,2.043,0.034C0.711,159.679,0.726,160.594,0.171,161.148"/>
					
						<rect x="-24.251" y="138.423" transform="matrix(0.7071 -0.7071 0.7071 0.7071 -105.2846 24.1251)" clip-path="url(#SVGID_6_)" fill="#3C3C3B" width="1.46" height="1.459"/>
					
						<rect x="-22.555" y="136.727" transform="matrix(0.7073 -0.7069 0.7069 0.7073 -103.5622 24.8082)" clip-path="url(#SVGID_6_)" fill="#3C3C3B" width="1.459" height="1.459"/>
					
						<rect x="-22.349" y="140.324" transform="matrix(0.7073 -0.7069 0.7069 0.7073 -106.045 26.0065)" clip-path="url(#SVGID_6_)" fill="#3C3C3B" width="1.459" height="1.459"/>
					
						<rect x="-20.653" y="138.628" transform="matrix(0.7073 -0.7069 0.7069 0.7073 -104.3498 26.7089)" clip-path="url(#SVGID_6_)" fill="#3C3C3B" width="1.459" height="1.459"/>
				</g>
			</g>
			<path clip-path="url(#SVGID_4_)" fill="#00A19A" d="M-12.696,135.777c-2.603-2.602-6.376-3.32-9.684-2.189l5.353,5.353
				l-0.206,5.815l-5.815,0.206l-5.353-5.353c-1.131,3.307-0.413,7.081,2.189,9.683c2.898,2.897,7.249,3.461,10.79,1.731
				l12.369,12.369c1.295,1.296,3.344,1.348,4.576,0.117c1.23-1.232,1.179-3.281-0.117-4.577l-12.37-12.37
				C-9.235,143.022-9.801,138.674-12.696,135.777 M-0.335,161.654c-0.555,0.555-1.47,0.54-2.043-0.034
				c-0.574-0.573-0.589-1.487-0.034-2.043c0.556-0.555,1.471-0.54,2.043,0.034C0.205,160.185,0.221,161.1-0.335,161.654"/>
			
				<rect x="-24.756" y="138.929" transform="matrix(0.7073 -0.7069 0.7069 0.7073 -105.7631 23.8962)" clip-path="url(#SVGID_4_)" fill="#95C11F" width="1.459" height="1.459"/>
			
				<rect x="-23.061" y="137.233" transform="matrix(0.7073 -0.7069 0.7069 0.7073 -104.0679 24.5986)" clip-path="url(#SVGID_4_)" fill="#95C11F" width="1.459" height="1.459"/>
			
				<rect x="-22.855" y="140.83" transform="matrix(0.7073 -0.7069 0.7069 0.7073 -106.5507 25.797)" clip-path="url(#SVGID_4_)" fill="#95C11F" width="1.459" height="1.459"/>
			
				<rect x="-21.159" y="139.134" transform="matrix(0.7073 -0.7069 0.7069 0.7073 -104.8555 26.4994)" clip-path="url(#SVGID_4_)" fill="#95C11F" width="1.459" height="1.459"/>
		</g>
	</g>
	<g display="inline">
		<defs>
			<polygon id="SVGID_7_" points="240.061,52.087 87.396,-100.58 -65.261,52.073 87.41,204.74 			"/>
		</defs>
		<clipPath id="SVGID_8_">
			<use xlink:href="#SVGID_7_"  overflow="visible"/>
		</clipPath>
		<g clip-path="url(#SVGID_8_)">
			<path fill="#00A19A" d="M42.789,94.614c0,17.852,10.479,33.256,25.701,40.722l0.006-36.718l20.643-19.239l20.654,19.239v36.715
				c15.218-7.462,25.703-22.867,25.703-40.714c0-19.875-12.993-36.733-31.073-42.946v-84.846
				c0.005-8.886-6.845-16.091-15.291-16.097c-8.445,0.006-15.298,7.211-15.298,16.099v84.853
				C55.769,57.895,42.789,74.748,42.789,94.614 M89.142-36.535c3.805,0,6.893,3.191,6.888,7.124
				c0.005,3.937-3.079,7.121-6.888,7.124c-3.808-0.003-6.894-3.189-6.89-7.124C82.252-33.343,85.334-36.537,89.142-36.535"/>
			<polygon fill="#95C11F" points="91.417,116.623 98.498,116.629 98.498,123.704 91.421,123.706 			"/>
			<rect x="79.784" y="116.625" fill="#95C11F" width="7.08" height="7.082"/>
			<polygon fill="#95C11F" points="91.421,103.583 98.493,103.583 98.498,110.662 91.417,110.662 			"/>
			<rect x="79.782" y="103.583" fill="#95C11F" width="7.08" height="7.079"/>
		</g>
	</g>
</g>
<g id="Layer_2" display="none">
	<polygon display="inline" fill="#00A19A" points="61.157,152.932 61.169,87.966 103.995,48.052 119.46,62.675 119.662,39.814 
		137.094,39.673 137.131,79.284 146.846,87.966 146.846,152.932 	"/>
	<g display="inline">
		<polygon fill="#95C11F" points="108.723,125.32 123.413,125.334 123.413,140.012 108.73,140.017 		"/>
		<rect x="84.588" y="125.325" fill="#95C11F" width="14.689" height="14.692"/>
		<polygon fill="#95C11F" points="108.73,98.268 123.402,98.268 123.413,112.954 108.723,112.954 		"/>
		<polygon fill="#95C11F" points="84.588,98.268 99.277,98.268 99.269,112.954 84.588,112.959 		"/>
	</g>
</g>
<g id="Layer_3">
	<polyline fill="none" stroke="#F4F4F4" stroke-width="9" stroke-miterlimit="10" points="3.917,104.21 30.668,80.188 
		104.42,13.955 190.771,92.991 	"/>
	<line fill="#00A19A" stroke="#F4F4F4" stroke-width="6" stroke-miterlimit="10" x1="31.163" y1="199" x2="31.729" y2="76.892"/>
	<polyline fill="#F4F4F4" stroke="#F4F4F4" stroke-miterlimit="10" points="125.886,29.08 123.936,1.269 165.892,3.709 
		163.941,67.621 	"/>
</g>
<g id="Layer_4">
	<g>
		<polygon fill="#F4F4F4" stroke="#F4F4F4" stroke-miterlimit="10" points="113.716,147.51 138.977,147.534 138.977,172.772 
			113.729,172.779 		"/>
		<rect x="72.217" y="147.517" fill="#F4F4F4" stroke="#F4F4F4" stroke-miterlimit="10" width="25.258" height="25.262"/>
		<polygon fill="#F4F4F4" stroke="#F4F4F4" stroke-miterlimit="10" points="113.729,100.993 138.957,100.993 138.977,126.247 
			113.716,126.247 		"/>
		<polygon fill="#F4F4F4" stroke="#F4F4F4" stroke-miterlimit="10" points="72.217,100.993 97.475,100.993 97.46,126.247 
			72.217,126.255 		"/>
	</g>
</g>
</svg>
